<svg xmlns="http://www.w3.org/2000/svg" viewBox="0 0 225 75.8"><path d="M75.1 75.6c-1.7-.6-3.2-2-5.6-5.1-.6-.8-1.2-1.5-1.3-1.5-.1-.1-1-1.2-2.1-2.5s-2.9-3.4-4-4.6c-2.6-3-3.2-3.9-3.9-5.9-.7-1.9-.8-3.3-.3-5.2.6-2.4 1.8-4.2 5.8-9 .2-.3 1.1-1.5 2-2.6 1.9-2.5 2.3-3 3.5-4.3.5-.6 1.1-1.4 1.4-1.9l.5-.8-.8-1c-.4-.5-1.7-2.1-2.9-3.4-4-4.5-5-6.2-5.3-9.1-.6-4.4 2.6-8.5 6.2-8.1.7.1 1.7.3 2.1.5 1 .5 2.8 2.2 4.2 4 .6.8 1.2 1.5 1.3 1.5.1.1.9 1 1.7 2.1.9 1.1 1.8 2.2 2.1 2.5 2.7 2.8 5.1 6.1 5.9 8 .5 1.2.5 4.3.1 5.9-.4 1.5-1.3 2.8-5.2 7.6-4 4.9-7.2 9.1-7.6 9.9-.3.5-.2.7.2 1.2.3.3.7.8 1 1.2.6.7 2.4 2.9 3.6 4.2 2.7 3 3.3 3.9 4 5.3 1.5 3 1.5 5.7.2 8.5-1 2.1-2.3 3-4.3 3.2-1-.3-1.9-.4-2.5-.6z" fill="#ffdd2b"/><path d="M158.3 22.9c-1.8 0-3.6.2-4.7.5-2.6.7-6.2 2.5-8.3 4.2-4.8 4.1-7.5 9.8-7.8 16.8-.4 9 3.3 16.5 10.3 20.6 1.2.7 3.4 1.6 5.6 2.1 1.3.3 2.8.5 5.3.5 5.3 0 9.2-.9 12.8-3.1 1.9-1.1 5.3-4.4 5.9-5.5 1.2-2.5-.4-5.5-3.3-6.3-.5-.1-1.1-.2-1.3-.2-.2.1-.6.2-1 .3-.4.1-1.6 1-2.7 2-3.5 3.2-6.2 4.4-10.3 4.4-3.1 0-5.2-.6-7.3-2.2-1.7-1.3-2.7-2.5-3.6-4.4-.8-1.8-1.3-4.7-.9-5.7l.3-.7 12.1-.1 12.1-.1 1.7-.9c2.8-1.4 4.2-3.7 4.1-6.9-.1-6.8-6.1-13.1-14.1-15-1.3-.2-3.1-.3-4.9-.3zm.3 8c2.2 0 3 .1 4.2.6 2 .8 3.4 1.9 4.2 3.2 1 1.7 1.1 2.8.4 3.5-.5.5-.7.5-9.8.5-5.1 0-9.4-.1-9.6-.2-1.1-.4 1.1-3.9 3.5-5.6 2.5-1.6 4-2 7.1-2zm47-8.1c-1.9 0-3.8.3-5.6.8-9.1 2.6-15 11-15.2 21.4-.2 8.3 3.4 15.4 9.5 19.4 2 1.3 3.7 2 6.3 2.7 2.4.6 7.9.7 10.9.1 2.4-.5 5.1-1.5 7.2-2.7 2.1-1.2 5.7-4.7 6-5.8 1-2.9-1.3-6.1-4.4-6.1-1.6 0-2.1.3-4.2 2.3-3.2 3-6.1 4.2-10.1 4.2-2.9 0-4.9-.5-6.9-1.9-1.8-1.2-2.8-2.4-3.8-4.5-.7-1.5-.8-2-.8-4v-2.3l12.1-.1 12.1-.1 1.6-.7c6-2.8 5.8-10.7-.3-16.8-2.4-2.4-4.2-3.5-7.2-4.6-2.4-1-4.8-1.3-7.2-1.3zm.3 8.1c3 0 4.7.5 6.7 1.9 2.1 1.5 3.2 4.3 2.1 5.4-.5.5-.7.5-9.8.5-5.1 0-9.4-.1-9.6-.2-.9-.6.9-3.4 3.3-5.2 2.4-1.9 4-2.4 7.3-2.4zm-168.6 36c-.6-.3-1.4-1-1.7-1.5l-.6-1V45.3c0-21.3-.1-19.7 1.8-21.2 1.2-.9 3.3-1.1 4.9-.5 1.2.5 2.7 1.9 2.7 2.7v19.2c0 20.9.1 19.6-1.8 21.1-1.2.9-3.7 1.1-5.3.3zm-26.2-.3c-.4-.1-.9-.5-1.3-.8-1.4-1.3-1.4-.9-1.3-16.4 0-7.9-.1-14.9-.2-15.6l-.2-1.2H5.8c-3.1 0-4.3-.4-5.1-1.9-1.2-2-.7-5.1 1.1-6.2.6-.4 1.4-.5 3.6-.6l2.8-.1.2-4.3c.1-2.3.2-4.7.4-5.2.9-4.2 2.1-6.6 4.5-9.1C16.3 2 20 .5 24.4.5c2.4 0 4 .6 4.9 1.9.8 1 .7 3.6-.1 4.8-.9 1.5-1.7 1.8-4.4 2.1-2.8.3-4 .8-5.2 2.2-1.3 1.6-1.9 3.8-2 7.9-.1 2.6 0 3.7.2 3.9.3.3 1.1.4 4.6.4 4.1 0 4.4 0 5.2.6 2.5 1.7 2.6 5.8.1 7.5-.7.5-1.1.6-5.4.7-3.3.1-4.6.2-4.6.4s0 7.2-.1 15.7V64l-.8 1c-.4.5-1.2 1.2-1.7 1.4-.8.5-3 .6-4 .2zm87.7-.2c-3.6-1.4-5-5.1-3.3-8.6.8-1.6 1.1-2.1 10.2-11.8 7.1-7.6 10.7-11.6 11.3-12.7.4-.7.4-.9.1-1.1-.2-.2-3.2-.2-8.7-.1-9.4.2-9.6.2-10.8-1.6-.5-.8-.6-1.2-.5-2.6.1-2 .6-2.9 2-3.6.7-.4 2.2-.4 13.4-.3 7.2.1 13 .2 13.5.3 1.3.4 2.5 1.4 3.1 2.7.5 1 .6 1.5.5 2.9-.2 3-.1 2.8-10.8 14.2-10.2 10.8-12.1 12.9-12.1 13.3-.2 1.1-.6 1.1 11 1 10.1-.1 11.1 0 11.9.4 2.4 1.3 2.7 4.8.7 6.8-1.5 1.4-1.7 1.4-16.6 1.4-12.8-.2-13.7-.2-14.9-.6zM37.9 12.2c-3.2-.9-5-4.1-4.3-7.5.7-3.3 4.5-5.4 7.9-4.5 1.5.4 3.4 2.1 4 3.5 1.5 3.4-.6 7.6-4.3 8.6-1.5.4-1.7.4-3.3-.1z"/></svg>