<svg data-name="レイヤー 1" xmlns="http://www.w3.org/2000/svg" viewBox="0 0 275.3 104.1"><path d="M51.65.41a51.44 51.44 0 1 0 51.22 51.58A51.5 51.5 0 0 0 51.65.41zm140.13 5.23c-20.51-10.18-44.72-5.83-60.9 10.94-15.23 15.75-18.49 40.55-7.87 60.17 11.13 20.58 32.3 28.13 47.12 27.05v-51h50.27c.99-14.62-7.1-36.47-28.62-47.16zm83.52 15.11a20.45 20.45 0 0 0-2.59-10.06 20.33 20.33 0 0 0-22.87-10 20.7 20.7 0 0 0-15.46 20.24v62.18c0 11.66 9.1 21 20.43 21a20.65 20.65 0 0 0 20.48-21V36.33c0-5.18-.02-10.38.01-15.58z" fill="#fff"/></svg>