<svg xmlns="http://www.w3.org/2000/svg" id="レイヤー_1" data-name="レイヤー 1" viewBox="0 0 297.71 115.68" version="1.1"><defs id="defs4"><style id="style2">.cls-1{fill:none;stroke:#040000;stroke-miterlimit:10;stroke-width:5px}</style></defs><path class="cls-1" d="M58.6 3.25a54.69 54.69 0 1 0 54.46 54.83A54.74 54.74 0 0 0 58.6 3.25z" transform="translate(-1.15 -.31)" id="path8" fill="none" fill-opacity="1" stroke="#ffd800" stroke-opacity="1"/><path class="cls-1" d="M207.56 8.8C185.75-2 160 2.61 142.8 20.44c-16.19 16.78-19.66 43.11-8.37 64 11.84 21.89 34.35 29.91 50.11 28.76V59H238c1-15.6-7.56-38.83-30.44-50.2z" transform="translate(-1.15 -.31)" id="path10" fill="none" fill-opacity="1" stroke="#ffd800" stroke-opacity="1"/><path class="cls-1" d="M296.35 24.87a21.57 21.57 0 0 0-2.76-10.7 21.6 21.6 0 0 0-24.31-10.68A22 22 0 0 0 252.85 25v66.11a22 22 0 0 0 21.72 22.37c12.06 0 21.76-9.9 21.77-22.31V41.45c0-5.53-.02-11.05.01-16.58z" transform="translate(-1.15 -.31)" id="path12" fill="none" fill-opacity="1" stroke="#ffd800" stroke-opacity="1"/></svg>