<svg xmlns="http://www.w3.org/2000/svg" viewBox="0 0 300 116.19"><path d="M58.6 3.25C28.36 3.14 3.71 27.6 3.65 57.81c-.07 30.17 24.33 54.71 54.48 54.82 30.29.11 54.85-24.28 54.93-54.54.08-30.16-24.32-54.73-54.46-54.84zM207.56 8.8C185.75-2.02 160 2.61 142.8 20.44c-16.19 16.78-19.66 43.11-8.37 63.97 11.84 21.88 34.35 29.91 50.1 28.76V58.95h53.45c1.05-15.55-7.54-38.78-30.42-50.15zm88.79 16.07c.02-3.83-.95-7.39-2.76-10.7-4.82-8.78-14.85-13.15-24.31-10.68-9.75 2.55-16.42 11.25-16.43 21.52-.02 22.04-.01 44.07 0 66.11 0 12.39 9.68 22.34 21.72 22.37 12.06.02 21.76-9.9 21.77-22.3.01-11.05 0-22.1 0-33.16V41.45c0-5.53-.02-11.05.01-16.58z" fill="none" stroke="#f5c51d" stroke-width="5" stroke-miterlimit="10"/></svg>