<svg data-name="レイヤー 1" xmlns="http://www.w3.org/2000/svg" viewBox="0 0 297.71 115.68"><path d="M57.45 2.94a54.69 54.69 0 1 0 54.46 54.83A54.74 54.74 0 0 0 57.45 2.94zm148.96 5.55c-21.81-10.8-47.56-6.19-64.76 11.64-16.19 16.78-19.66 43.11-8.37 64 11.84 21.89 34.35 29.91 50.11 28.76v-54.2h53.46c1-15.6-7.56-38.83-30.44-50.2zm88.79 16.07a21.57 21.57 0 0 0-2.76-10.7 21.6 21.6 0 0 0-24.31-10.68 22 22 0 0 0-16.43 21.51V90.8a22 22 0 0 0 21.72 22.37c12.06 0 21.76-9.9 21.77-22.31V41.14c0-5.53-.02-11.05.01-16.58z" fill="none" stroke="#040000" stroke-miterlimit="10" stroke-width="5"/></svg>